<?xml version="1.0" encoding="utf-8"?>
<svg version="1.1" xmlns:xlink="http://www.w3.org/1999/xlink" width="309px" height="170px" xmlns="http://www.w3.org/2000/svg">
  <g transform="matrix(1 0 0 1 -34 -591 )">
    <path d="M 188.5 591  C 275.02 591  343 628.4  343 676  C 343 723.6  275.02 761  188.5 761  C 101.98 761  34 723.6  34 676  C 34 628.4  101.98 591  188.5 591  Z " fill-rule="nonzero" fill="#ffffff" stroke="none" />
    <path d="M 188.5 591.5  C 274.74 591.5  342.5 628.68  342.5 676  C 342.5 723.32  274.74 760.5  188.5 760.5  C 102.26 760.5  34.5 723.32  34.5 676  C 34.5 628.68  102.26 591.5  188.5 591.5  Z " stroke-width="1" stroke="#797979" fill="none" />
  </g>
</svg>