<?xml version="1.0" encoding="utf-8"?>
<svg version="1.1" xmlns:xlink="http://www.w3.org/1999/xlink" width="312px" height="170px" xmlns="http://www.w3.org/2000/svg">
  <g transform="matrix(1 0 0 1 -572 -35 )">
    <path d="M 728 35  C 815.36 35  884 72.4  884 120  C 884 167.6  815.36 205  728 205  C 640.64 205  572 167.6  572 120  C 572 72.4  640.64 35  728 35  Z " fill-rule="nonzero" fill="#ffffff" stroke="none" />
    <path d="M 728 35.5  C 815.08 35.5  883.5 72.68  883.5 120  C 883.5 167.32  815.08 204.5  728 204.5  C 640.92 204.5  572.5 167.32  572.5 120  C 572.5 72.68  640.92 35.5  728 35.5  Z " stroke-width="1" stroke="#797979" fill="none" />
  </g>
</svg>