<?xml version="1.0" encoding="utf-8"?>
<svg version="1.1" xmlns:xlink="http://www.w3.org/1999/xlink" width="24px" height="25px" xmlns="http://www.w3.org/2000/svg">
  <g transform="matrix(1 0 0 1 -882 -211 )">
    <path d="M 14.71875 15.33203125  C 15.9831730769231 14.0149238782051  16.6153846153846 12.4298878205128  16.6153846153846 10.5769230769231  C 16.6153846153846 8.72395833333333  15.9831730769231 7.13892227564102  14.71875 5.82181490384615  C 13.4543269230769 4.50470753205128  11.9326923076923 3.84615384615385  10.1538461538462 3.84615384615385  C 8.375 3.84615384615385  6.85336538461539 4.50470753205128  5.58894230769231 5.82181490384615  C 4.32451923076923 7.13892227564102  3.69230769230769 8.72395833333333  3.69230769230769 10.5769230769231  C 3.69230769230769 12.4298878205128  4.32451923076923 14.0149238782051  5.58894230769231 15.33203125  C 6.85336538461539 16.6491386217949  8.375 17.3076923076923  10.1538461538462 17.3076923076923  C 11.9326923076923 17.3076923076923  13.4543269230769 16.6491386217949  14.71875 15.33203125  Z M 23.4663461538462 21.7247596153846  C 23.8221153846154 22.0953525641026  24 22.5460737179487  24 23.0769230769231  C 24 23.5977564102564  23.8173076923077 24.0484775641026  23.4519230769231 24.4290865384615  C 23.0865384615385 24.8096955128205  22.6538461538462 25  22.1538461538462 25  C 21.6346153846154 25  21.2019230769231 24.8096955128205  20.8557692307692 24.4290865384615  L 15.9086538461538 19.2908653846154  C 14.1875 20.5328525641026  12.2692307692308 21.1538461538462  10.1538461538462 21.1538461538462  C 8.77884615384616 21.1538461538462  7.46394230769231 20.8759014423077  6.20913461538461 20.3200120192308  C 4.95432692307692 19.7641225961538  3.87259615384615 19.0129206730769  2.96394230769231 18.06640625  C 2.05528846153846 17.1198918269231  1.33413461538462 15.9930889423077  0.800480769230769 14.6859975961538  C 0.266826923076923 13.37890625  0 12.0092147435897  0 10.5769230769231  C 0 9.14463141025641  0.266826923076923 7.77493990384615  0.800480769230769 6.46784855769231  C 1.33413461538462 5.16075721153846  2.05528846153846 4.03395432692308  2.96394230769231 3.08743990384615  C 3.87259615384615 2.14092548076923  4.95432692307692 1.38972355769231  6.20913461538461 0.833834134615385  C 7.46394230769231 0.277944711538461  8.77884615384616 0  10.1538461538462 0  C 11.5288461538462 0  12.84375 0.277944711538461  14.0985576923077 0.833834134615385  C 15.3533653846154 1.38972355769231  16.4350961538462 2.14092548076923  17.34375 3.08743990384615  C 18.2524038461538 4.03395432692308  18.9735576923077 5.16075721153846  19.5072115384615 6.46784855769231  C 20.0408653846154 7.77493990384615  20.3076923076923 9.14463141025641  20.3076923076923 10.5769230769231  C 20.3076923076923 12.7804487179487  19.7115384615385 14.7786458333333  18.5192307692308 16.5715144230769  L 23.4663461538462 21.7247596153846  Z " fill-rule="nonzero" fill="#000000" stroke="none" transform="matrix(1 0 0 1 882 211 )" />
  </g>
</svg>